PathFileType	4	(X/Y/Z)	./resultDataOpenSim/trcMotMarkerGrf/sub06/qtm-12-07.trc
DataRate	CameraRate	NumFrames	NumMarkers	Units	OrigDataRate	OrigDataStartFrame	OrigNumFrames
250.000000	250.000000	13	24	m	250.000000	314	502
Frame#	Time	L.Toe.Tip			R.Toe.Tip			L.Ankle.Lat			R.Ankle.Lat			L.Ankle.Med			R.Ankle.Med			L.Heel			R.Heel			L.Knee.Lat			R.Knee.Lat			L.Knee.Med			R.Knee.Med			L.Thigh.Upper			R.Thigh.Upper			L.ASIS			R.ASIS			V.Sacral			L.Acromium			R.Acromium			C7			L.Elbow			R.Elbow			L.Wrist.Lat			R.Wrist.Lat
		X1	Y1	Z1	X2	Y2	Z2	X3	Y3	Z3	X4	Y4	Z4	X5	Y5	Z5	X6	Y6	Z6	X7	Y7	Z7	X8	Y8	Z8	X9	Y9	Z9	X10	Y10	Z10	X11	Y11	Z11	X12	Y12	Z12	X13	Y13	Z13	X14	Y14	Z14	X15	Y15	Z15	X16	Y16	Z16	X17	Y17	Z17	X18	Y18	Z18	X19	Y19	Z19	X20	Y20	Z20	X21	Y21	Z21	X22	Y22	Z22	X23	Y23	Z23	X24	Y24	Z24

314	1.252	0.37300197	0.090910178	-0.085149138	0.81085553	0.034757331	0.084378547	0.3551703	0.21868933	-0.1107732	0.67389308	0.061217653	0.10724487	0.37793448	0.22492478	-0.028726038	0.69544253	0.082345359	0.019651272	0.30317916	0.26941593	-0.058573272	0.61916315	0.041381219	0.048461173	0.68404894	0.39959941	-0.14563823	0.75691624	0.44116179	0.14052229	0.69441981	0.38706025	-0.024737999	0.72113517	0.43315421	0.016943037	0.61399501	0.79031268	-0.13669212	0.6591699	0.80374004	0.20215516	0.69558765	0.84279747	-0.10747866	0.73767797	0.85824704	0.13524457	0.5312976	0.92433853	0.047511477	0.65257082	1.3372269	-0.14874634	0.66946899	1.3110454	0.21286304	0.5858195	1.3663844	0.036126278	0.62057778	1.0128428	-0.21410567	0.57367051	1.0096207	0.28293611	0.81769807	0.86317485	-0.21134736	0.71055067	0.81354514	0.3342857
315	1.256	0.38914449	0.09144061	-0.085791046	0.81087511	0.034755831	0.084367145	0.369099	0.21882857	-0.11090223	0.67395989	0.061319615	0.10723472	0.391952	0.2251473	-0.028874847	0.69553037	0.082513494	0.019673882	0.31625776	0.26864076	-0.05843933	0.61916891	0.041626374	0.048509452	0.69625621	0.40229203	-0.14571452	0.7579413	0.44123985	0.14047955	0.70608964	0.39013324	-0.024207717	0.72263318	0.43351076	0.016760402	0.62104478	0.79224907	-0.1368692	0.66371603	0.80460477	0.20242408	0.70231493	0.84468723	-0.10685447	0.74308288	0.85976086	0.13614946	0.53699465	0.92587987	0.047980707	0.6583617	1.3389984	-0.1485891	0.6755232	1.312911	0.2128994	0.59177378	1.367952	0.036312408	0.62465276	1.0151043	-0.21377181	0.58210334	1.0106145	0.28371657	0.81937983	0.86244624	-0.21199077	0.72348014	0.81702285	0.33353634
316	1.26	0.40544093	0.091816609	-0.086461596	0.81089318	0.034755329	0.084359109	0.38309115	0.21877805	-0.11106315	0.67402767	0.06140503	0.10721464	0.40602374	0.22516239	-0.029043656	0.69561682	0.082701702	0.019722437	0.3293643	0.26759107	-0.058297863	0.61919899	0.041884126	0.048508466	0.70841527	0.40505429	-0.14575874	0.75885396	0.44131975	0.14038686	0.71756547	0.39319259	-0.023710056	0.72396216	0.43384089	0.016620008	0.62803567	0.79416785	-0.13706629	0.66848012	0.80551178	0.20275229	0.7086967	0.84651979	-0.10647144	0.74849428	0.86127582	0.13702106	0.54286704	0.92731366	0.048301957	0.6642	1.3407387	-0.14846577	0.68158189	1.314756	0.21293027	0.59772355	1.3694902	0.036492145	0.62863091	1.0173394	-0.21340035	0.59054859	1.0116342	0.28450984	0.82101237	0.86179285	-0.21266397	0.73634411	0.82061443	0.33272927
317	1.264	0.42187333	0.092034048	-0.08713203	0.81091071	0.034755098	0.084359894	0.39716133	0.21853329	-0.11123655	0.67409532	0.061501867	0.10719865	0.42015678	0.22497265	-0.029209949	0.6957009	0.082909173	0.019785956	0.342518	0.26625593	-0.058173942	0.61924487	0.042150145	0.048475615	0.72050189	0.40788175	-0.1457832	0.75975188	0.44142375	0.14031914	0.72904659	0.39619698	-0.023294436	0.7250457	0.43415551	0.016543139	0.63488317	0.79606572	-0.13725507	0.6735246	0.80647042	0.20310124	0.7148311	0.84831851	-0.10625796	0.75392421	0.86278431	0.13786352	0.54891789	0.92864034	0.048452088	0.67005983	1.3424428	-0.14834461	0.68765047	1.3165753	0.21295717	0.60366831	1.3709966	0.036668278	0.63255749	1.0195523	-0.21302847	0.59902351	1.0126739	0.28531831	0.822585	0.86121316	-0.21338009	0.74913314	0.82431315	0.33186535
318	1.268	0.43843845	0.092083864	-0.087789715	0.81092854	0.034754851	0.084371375	0.41132841	0.21807321	-0.11137826	0.67418204	0.061629581	0.10718794	0.43434154	0.22458436	-0.029337212	0.69578192	0.083133784	0.019852372	0.35573646	0.26465657	-0.05812756	0.61928512	0.042426424	0.048452905	0.73248501	0.41076789	-0.14578982	0.76069715	0.44155314	0.14032066	0.74073016	0.39911963	-0.023001402	0.72594694	0.43442514	0.016515319	0.64165902	0.79794709	-0.13744421	0.6787924	0.80746189	0.20339062	0.72097157	0.85011249	-0.10603143	0.75937329	0.86427656	0.13868049	0.55506959	0.92989332	0.048442253	0.6759099	1.3441029	-0.14819249	0.69373208	1.3183626	0.21298117	0.60960884	1.3724626	0.036845458	0.63645304	1.021742	-0.21267415	0.60748719	1.0137194	0.28612627	0.82409444	0.86069663	-0.21413842	0.76184233	0.82811859	0.3309453
319	1.272	0.45520277	0.091980895	-0.088489969	0.81094836	0.034754439	0.084392221	0.42558932	0.21739041	-0.1114658	0.67429323	0.061784907	0.10717934	0.44856438	0.22399494	-0.029410448	0.69586329	0.083371185	0.019914105	0.36903713	0.26282024	-0.058196241	0.61931523	0.04271846	0.048457956	0.744364	0.41369842	-0.1457687	0.76167803	0.44169722	0.14037528	0.75264556	0.40197835	-0.022832841	0.72668124	0.43462363	0.016501912	0.64855267	0.79983229	-0.13757963	0.68410272	0.80844943	0.20358768	0.72729407	0.85191373	-0.10566532	0.76483271	0.86573757	0.13947071	0.56119586	0.93112531	0.048318025	0.68174031	1.3457118	-0.1480055	0.69982573	1.3201106	0.21300318	0.61554437	1.3738812	0.037029672	0.64032293	1.0239011	-0.21234358	0.6158358	1.0147496	0.2868987	0.82555404	0.8602338	-0.21492358	0.77446893	0.83203482	0.32996917
320	1.276	0.47227125	0.091760995	-0.089327334	0.81097434	0.034753752	0.08441938	0.43991345	0.21651223	-0.11153433	0.67440337	0.061957981	0.10717743	0.46282246	0.22319452	-0.029451784	0.69595072	0.083616088	0.0199686	0.38243594	0.26073046	-0.058322447	0.61935415	0.043027374	0.048471537	0.75617556	0.41665009	-0.1457023	0.76266359	0.44184522	0.14044979	0.76465778	0.4048412	-0.022749027	0.72712005	0.43478524	0.016460035	0.65570106	0.80173449	-0.1375819	0.68922395	0.80939548	0.2037336	0.73381204	0.85371761	-0.10515172	0.77029291	0.86715117	0.14023101	0.56721042	0.93236698	0.048131166	0.68755977	1.3472635	-0.14780353	0.70592536	1.3218138	0.21302116	0.62147395	1.3752479	0.037220061	0.64416847	1.0260201	-0.21203704	0.62400481	1.0157519	0.28761578	0.82699481	0.85981575	-0.2157145	0.78700934	0.83606092	0.32893421
321	1.28	0.48964699	0.091440528	-0.09031437	0.81101124	0.034752839	0.084450209	0.4542807	0.21546918	-0.11163401	0.67446519	0.062154908	0.10719949	0.47712701	0.22217517	-0.029491059	0.69605102	0.083864881	0.020017623	0.39592863	0.25834129	-0.058395297	0.61942242	0.043346682	0.048467246	0.76794551	0.41960435	-0.14558385	0.76364448	0.44198989	0.14053042	0.77657229	0.40780993	-0.022661721	0.72731801	0.43496146	0.016370885	0.66304959	0.80363792	-0.13747867	0.69410401	0.81029564	0.2038932	0.7404568	0.8555171	-0.10454696	0.77575146	0.86850658	0.14096145	0.57309919	0.93360818	0.047912493	0.69338352	1.348751	-0.14760713	0.71202436	1.3234686	0.21303142	0.62740088	1.3765593	0.037405835	0.64799035	1.0280901	-0.21175072	0.63206691	1.0167351	0.28830639	0.8284476	0.85943103	-0.21649471	0.79945603	0.84017435	0.32783568
322	1.284	0.50720364	0.091010794	-0.091354041	0.81105956	0.034751541	0.084484413	0.46871561	0.21425213	-0.11177062	0.67445382	0.062394812	0.10725882	0.49151336	0.220933	-0.029548521	0.69617137	0.084118207	0.020066079	0.40950001	0.25563242	-0.058366668	0.61953257	0.043669521	0.048423812	0.77963261	0.42255935	-0.14543036	0.76462507	0.4421276	0.14061761	0.78813935	0.41100049	-0.022412383	0.72760054	0.43516321	0.016263492	0.67043591	0.80551395	-0.13738709	0.69895941	0.8111817	0.20409007	0.74715933	0.85731259	-0.10390597	0.78121129	0.86979665	0.14166445	0.57887143	0.93482587	0.047676174	0.69922553	1.3501679	-0.14742483	0.7181219	1.3250716	0.21303456	0.63333163	1.3778171	0.037578229	0.65178856	1.0301028	-0.21147421	0.64017683	1.0177199	0.28902872	0.82991031	0.85906829	-0.21727487	0.81179547	0.84432777	0.32666785
323	1.288	0.52483727	0.090470487	-0.092365232	0.81111318	0.034748535	0.084524931	0.48326526	0.21282644	-0.11192186	0.67441701	0.062682321	0.1073354	0.50603126	0.2194701	-0.029641292	0.69631358	0.084382445	0.02012063	0.42315946	0.25262255	-0.058277043	0.61968503	0.043996778	0.048324136	0.79113692	0.42552275	-0.14527463	0.7656086	0.44225607	0.14071282	0.79913495	0.41448047	-0.021842085	0.72814664	0.43536683	0.016152999	0.67776701	0.80734955	-0.13737977	0.70399977	0.81206698	0.20428738	0.75386162	0.85911032	-0.10325819	0.78667493	0.87101221	0.14233989	0.58455086	0.93600516	0.047435405	0.70508801	1.3515123	-0.14725575	0.72422369	1.326619	0.21303644	0.63926968	1.3790258	0.037738962	0.65556545	1.032053	-0.2111949	0.64841949	1.0187112	0.28981617	0.83134191	0.85872017	-0.21809724	0.82401998	0.84848102	0.3254315
324	1.292	0.54254593	0.089830341	-0.093356555	0.81116189	0.034740853	0.084577176	0.49795712	0.21117444	-0.11208578	0.67444516	0.062989599	0.1073813	0.52070595	0.2177987	-0.029775423	0.69647067	0.084666185	0.020185634	0.43694046	0.2493452	-0.058188596	0.61984207	0.044334808	0.048182497	0.80238613	0.428497	-0.14514164	0.76658931	0.44237256	0.1408102	0.80979285	0.41809642	-0.021060878	0.72883251	0.43554366	0.015995798	0.68502821	0.80914863	-0.13746818	0.70920623	0.81292024	0.20442836	0.76050411	0.86091371	-0.10261264	0.79214288	0.87214421	0.14298394	0.59022312	0.93712575	0.047196823	0.71096113	1.3527867	-0.14709977	0.7303353	1.3281072	0.21304096	0.64521119	1.3801836	0.037893662	0.65932752	1.0339409	-0.21090972	0.65674214	1.0196837	0.29064832	0.83271133	0.85838616	-0.21898345	0.83614925	0.85263804	0.32414786
325	1.296	0.56034009	0.089095629	-0.09436026	0.81119943	0.034726616	0.084643884	0.51279485	0.20930339	-0.11227911	0.67458079	0.063278918	0.10736659	0.53558736	0.21592863	-0.029961289	0.69663742	0.084971828	0.020254779	0.45086585	0.24582002	-0.058123553	0.61993169	0.04469067	0.048049434	0.81342371	0.43147567	-0.1450258	0.76754252	0.44247476	0.14088807	0.82090767	0.42146254	-0.020526579	0.7294971	0.4357029	0.015757844	0.69218703	0.8109143	-0.13766792	0.71445143	0.81370354	0.20447878	0.76705089	0.86271231	-0.10196505	0.79761432	0.87318838	0.14359269	0.59600136	0.93816695	0.04694821	0.71683518	1.353991	-0.14696075	0.73645274	1.3295319	0.21304389	0.65114947	1.3812815	0.038043975	0.6630806	1.0357694	-0.21062658	0.66504379	1.0206033	0.29147902	0.8340364	0.85806758	-0.21990379	0.84822307	0.85683776	0.32284901
326	1.3	0.57816626	0.08826669	-0.095361541	0.8112337	0.034709163	0.084718229	0.52777202	0.20722889	-0.11250259	0.67478855	0.063538286	0.10730326	0.55077486	0.21386082	-0.030226882	0.69682643	0.085291509	0.020308471	0.46493061	0.2420366	-0.058050158	0.61991927	0.045070419	0.047957357	0.82440291	0.43444252	-0.14488149	0.76843583	0.44256882	0.14092064	0.83284094	0.42441092	-0.02047926	0.73011032	0.43588717	0.015476239	0.69920745	0.81264949	-0.13798651	0.7196526	0.81439492	0.20441821	0.77355853	0.86447858	-0.10130334	0.80308742	0.87414136	0.1441654	0.60190718	0.93913833	0.046670147	0.722709	1.3551187	-0.14684003	0.74256501	1.3308899	0.21303719	0.65708087	1.3823118	0.038186495	0.66682619	1.0375367	-0.21035511	0.67329089	1.0214576	0.29228509	0.83536597	0.85776175	-0.22082133	0.86027237	0.86111316	0.32154738
